<svg id="Capa_1" enable-background="new 0 0 512 512" height="35" viewBox="0 0 512 512" width="35" xmlns="http://www.w3.org/2000/svg"><g><path d="m0 257h91v30h-91z" fill="#283d66"/><path d="m421 257h91v30h-91z" fill="#0f0f4d"/><path d="m437 47h-15c-8.271 0-15-6.729-15-15v-32h-30v32c0 24.813 20.187 45 45 45h15c8.271 0 15 6.729 15 15s-6.729 15-15 15h-151c-11.517 0-22.032 4.353-30 11.495l-10 30.186 10 18.319h15v-15c0-8.271 6.729-15 15-15h151c24.813 0 45-20.187 45-45s-20.187-45-45-45z" fill="#ece6f2"/><path d="m436 227v-30h-180l-20 50z" fill="#cfcfe6"/><path d="m76 227 180 20v-50h-180z" fill="#ece6f2"/><path d="m256 512h120c33.084 0 60-26.916 60-60v-225h-180l-20 142.5z" fill="#283d66"/><path d="m76 227v225c0 33.084 26.916 60 60 60h120v-285z" fill="#4d628c"/><path d="m241 152v15h15v-48.505c-9.199 8.245-15 20.208-15 33.505z" fill="#fff5f5"/><path d="m220.601 81.292-8.61-20.787c-11.078-26.744-41.847-39.491-68.594-28.413l-3.307 18.149 14.787 9.568c11.462-4.75 24.649.715 29.397 12.177l8.61 20.787z" fill="#283d66"/><path d="m143.396 32.092c-12.955 5.366-23.046 15.456-28.413 28.412-5.366 12.956-5.366 27.227 0 40.183l8.61 20.787 27.717-11.48-8.61-20.787c-2.3-5.553-2.3-11.669 0-17.222 2.3-5.552 6.624-9.876 12.177-12.176z" fill="#4d628c"/><path d="m332.654 18.642-166.297 68.882-3.499 17.686 14.979 10.031 166.298-68.883z" fill="#beb9d9"/><path d="m-1.052 120.824h179.999v30h-179.999z" fill="#cfcfe6" transform="matrix(.924 -.383 .383 .924 -45.207 44.379)"/></g></svg>